<?xml version="1.0" encoding="utf-8"?>
<!-- Generator: Adobe Illustrator 19.1.0, SVG Export Plug-In . SVG Version: 6.00 Build 0)  -->
<!DOCTYPE svg PUBLIC "-//W3C//DTD SVG 1.1//EN" "http://www.w3.org/Graphics/SVG/1.1/DTD/svg11.dtd">
<svg version="1.1" id="Layer_1" xmlns="http://www.w3.org/2000/svg" xmlns:xlink="http://www.w3.org/1999/xlink" x="0px" y="0px"
	 viewBox="775 13 2161.3 768" style="enable-background:new 775 13 2161.3 768;" xml:space="preserve">
<style type="text/css">
	.st0{fill:#4A5760;}
	.st1{fill:#736B7A;}
	.st2{opacity:0.1;fill:#4A5760;enable-background:new    ;}
	.st3{fill:#344249;}
	.st4{fill:none;stroke:#E89E6C;stroke-width:1.2497;stroke-miterlimit:10;}
	.st5{fill:#FFB895;}
	.st6{fill:#C7B7A4;}
	.st7{fill:#6A7172;}
	.st8{fill:#007298;}
	.st9{fill:#9E7FAC;}
	.st10{fill:#8A428E;}
	.st11{fill:#9ECDD9;}
	.st12{fill:none;}
	.st13{opacity:0.9;fill:#FFA761;enable-background:new    ;}
	.st14{fill:#B66B56;}
	.st15{fill:#24BC7C;}
	.st16{opacity:0.1;fill:#0B0C0C;enable-background:new    ;}
	.st17{fill:#595658;}
	.st18{fill:#B5D178;}
	.st19{fill:#8F6B9E;}
	.st20{fill:#9FAAB3;}
	.st21{fill:#504659;}
	.st22{fill:#FFFFFF;}
	.st23{fill:#9FA8DA;}
	.st24{fill:#BF360C;}
	.st25{fill:#1565C0;}
	.st26{fill:#C8C4B8;}
	.st27{fill:#7E8A8A;}
	.st28{fill:#E45544;}
	.st29{fill:#232E38;}
	.st30{fill:none;stroke:#DAE3E6;stroke-miterlimit:10;}
	.st31{fill:none;stroke:#FFCC00;stroke-width:2;stroke-linecap:round;stroke-linejoin:round;stroke-miterlimit:10;}
	.st32{fill:none;stroke:#3F291E;stroke-width:2;stroke-linecap:round;stroke-linejoin:round;stroke-miterlimit:10;}
	.st33{fill:#A6ACB2;}
	.st34{fill:#90CAF9;}
	.st35{fill:#FFC700;}
	.st36{fill:#546E7A;}
	.st37{fill:#A8CEDE;}
	.st38{fill:#008E45;}
	.st39{fill:#37474F;}
	.st40{fill:#78909C;}
	.st41{fill:#455A64;}
</style>
<g>
	<g>
		<polygon class="st0" points="1027.2,604.1 1050.2,625.3 1004.3,625.3 958.3,625.3 981.3,604.1 		"/>
		<g>
			<rect x="965.8" y="625.3" class="st1" width="77.1" height="109.5"/>
			<rect x="965.8" y="625.3" class="st2" width="77.1" height="11.1"/>
		</g>
		<g>
			<g>
				<rect x="993.2" y="696.8" class="st0" width="22.4" height="37.9"/>
				<rect x="993.2" y="696.8" class="st3" width="4" height="37.9"/>
			</g>
		</g>
		<g>
			<g>
				<g>
					<g>
						<g>
							<path class="st4" d="M1025.2,585.4"/>
						</g>
						<g>
							<path class="st4" d="M1081.8,528.8"/>
						</g>
					</g>
					<g>
						<g>
							<path class="st4" d="M1025.1,626.4"/>
						</g>
						<g>
							<path class="st4" d="M1081.7,682.9"/>
						</g>
					</g>
					<g>
						<g>
							<path class="st4" d="M983.6,623.9"/>
						</g>
						<g>
							<path class="st4" d="M926.9,680.5"/>
						</g>
					</g>
					<g>
						<g>
							<path class="st4" d="M983.3,585.5"/>
						</g>
						<g>
							<path class="st4" d="M926.8,529"/>
						</g>
					</g>
				</g>
			</g>
		</g>
	</g>
	<g>
		<rect x="979.1" y="635.3" class="st5" width="13.1" height="7.4"/>
		<rect x="997.8" y="635.3" class="st5" width="13.1" height="7.4"/>
		<rect x="1016.4" y="635.3" class="st5" width="13.1" height="7.4"/>
	</g>
	<g>
		<rect x="979.2" y="649" class="st5" width="13.1" height="7.4"/>
		<rect x="997.8" y="649" class="st5" width="13.1" height="7.4"/>
		<rect x="1016.4" y="649" class="st5" width="13.1" height="7.4"/>
	</g>
	<g>
		<rect x="979.1" y="662.7" class="st5" width="13.1" height="7.4"/>
		<rect x="997.7" y="662.7" class="st5" width="13.1" height="7.4"/>
		<rect x="1016.4" y="662.7" class="st5" width="13.1" height="7.4"/>
	</g>
	<g>
		<rect x="979.1" y="676.4" class="st5" width="13.1" height="7.4"/>
		<rect x="997.7" y="676.4" class="st5" width="13.1" height="7.4"/>
		<rect x="1016.4" y="676.4" class="st5" width="13.1" height="7.4"/>
	</g>
</g>
<g>
	<g>
		<g>
			<g>
				<rect x="2854.8" y="626.6" class="st6" width="62.1" height="108.4"/>
			</g>
			<rect x="2852.2" y="619.6" class="st7" width="67.4" height="7"/>
		</g>
		<g>
			<g>
				<rect x="2893.3" y="635" class="st8" width="10.8" height="18"/>
			</g>
			<g>
				<rect x="2872" y="635" class="st8" width="10.8" height="18"/>
			</g>
			<g>
				<rect x="2893.3" y="691.1" class="st8" width="10.8" height="18"/>
			</g>
			<g>
				<rect x="2872" y="691.1" class="st8" width="10.8" height="18"/>
			</g>
			<g>
				<rect x="2893.3" y="662.2" class="st8" width="10.8" height="18"/>
			</g>
			<g>
				<rect x="2872" y="662.2" class="st8" width="10.8" height="18"/>
			</g>
		</g>
	</g>
</g>
<g>
	<g>
		<g>
			<g>
				<rect x="1756.5" y="629.4" class="st5" width="62.1" height="108.4"/>
			</g>
			<rect x="1753.8" y="622.4" class="st9" width="67.4" height="7"/>
		</g>
		<g>
			<g>
				<rect x="1794.9" y="637.8" class="st10" width="10.8" height="18"/>
			</g>
			<g>
				<rect x="1773.6" y="637.8" class="st10" width="10.8" height="18"/>
			</g>
			<g>
				<rect x="1794.9" y="693.9" class="st10" width="10.8" height="18"/>
			</g>
			<g>
				<rect x="1773.6" y="693.9" class="st10" width="10.8" height="18"/>
			</g>
			<g>
				<rect x="1794.9" y="665" class="st10" width="10.8" height="18"/>
			</g>
			<g>
				<rect x="1773.6" y="665" class="st10" width="10.8" height="18"/>
			</g>
		</g>
	</g>
</g>
<g>
	<g>
		<g>
			<g>
				<rect x="2072.5" y="627.5" class="st6" width="62.1" height="108.4"/>
			</g>
			<rect x="2069.8" y="620.5" class="st7" width="67.4" height="7"/>
		</g>
		<g>
			<g>
				<rect x="2111" y="635.9" class="st8" width="10.8" height="18"/>
			</g>
			<g>
				<rect x="2089.7" y="635.9" class="st8" width="10.8" height="18"/>
			</g>
			<g>
				<rect x="2111" y="692" class="st8" width="10.8" height="18"/>
			</g>
			<g>
				<rect x="2089.7" y="692" class="st8" width="10.8" height="18"/>
			</g>
			<g>
				<rect x="2111" y="663.1" class="st8" width="10.8" height="18"/>
			</g>
			<g>
				<rect x="2089.7" y="663.1" class="st8" width="10.8" height="18"/>
			</g>
		</g>
	</g>
</g>
<rect x="2717.6" y="521.7" class="st1" width="110.8" height="212.4"/>
<g>
	<g>
		<rect x="2712.1" y="510.8" class="st5" width="121.8" height="10.9"/>
	</g>
</g>
<g>
	<g>
		<rect x="2793.2" y="533" class="st11" width="25.9" height="11.9"/>
	</g>
	<g>
		<rect x="2760.1" y="533" class="st11" width="25.9" height="11.9"/>
	</g>
	<g>
		<rect x="2726.9" y="533" class="st11" width="25.9" height="11.9"/>
	</g>
	<g>
		<rect x="2793.2" y="554.3" class="st11" width="25.9" height="11.9"/>
	</g>
	<g>
		<rect x="2760.1" y="554.3" class="st11" width="25.9" height="11.9"/>
	</g>
	<g>
		<rect x="2726.9" y="554.3" class="st11" width="25.9" height="11.9"/>
	</g>
	<g>
		<rect x="2793.2" y="575.5" class="st11" width="25.9" height="11.9"/>
	</g>
	<g>
		<rect x="2760.1" y="575.5" class="st11" width="25.9" height="11.9"/>
	</g>
	<g>
		<rect x="2726.9" y="575.5" class="st11" width="25.9" height="11.9"/>
	</g>
	<g>
		<rect x="2793.2" y="596.8" class="st11" width="25.9" height="11.9"/>
	</g>
	<g>
		<rect x="2760.1" y="596.8" class="st11" width="25.9" height="11.9"/>
	</g>
	<g>
		<rect x="2726.9" y="596.8" class="st11" width="25.9" height="11.9"/>
	</g>
</g>
<g>
	<g>
		<rect x="2793.2" y="617.9" class="st11" width="25.9" height="11.9"/>
	</g>
	<g>
		<rect x="2760.1" y="617.9" class="st11" width="25.9" height="11.9"/>
	</g>
	<g>
		<rect x="2726.9" y="617.9" class="st11" width="25.9" height="11.9"/>
	</g>
	<g>
		<rect x="2793.2" y="639.2" class="st11" width="25.9" height="11.9"/>
	</g>
	<g>
		<rect x="2760.1" y="639.2" class="st11" width="25.9" height="11.9"/>
	</g>
	<g>
		<rect x="2726.9" y="639.2" class="st11" width="25.9" height="11.9"/>
	</g>
</g>
<g>
	<g>
		<line class="st12" x1="1637.3" y1="733.5" x2="1755.3" y2="733.5"/>
	</g>
</g>
<path class="st13" d="M861.1,388.1h8.1c1.6,0,2.8-1.3,2.8-2.8c0-1.6-1.3-2.8-2.8-2.8h0.2c-4.8,0-8.8-3.9-8.8-8.7
	c0-4.8,3.9-8.7,8.8-8.7H924c4.8,0,8.7,3.9,8.7,8.7c0,4.8-3.9,8.7-8.7,8.7h-1.3c-1.6,0-2.8,1.3-2.8,2.8c0,1.6,1.3,2.8,2.8,2.8H957
	c5.6,0,10.2,4.3,10.2,9.7c0,5.3-4.6,9.7-10.2,9.7h-95.9c-5.6,0-10.2-4.3-10.2-9.7C850.9,392.5,855.4,388.1,861.1,388.1z"/>
<path class="st13" d="M2621.2,386.3c0,4.7,3.8,8.5,8.5,8.5h52c4.7,0,8.5-3.8,8.5-8.5l0,0c0-4.7-3.8-8.5-8.5-8.5h-52
	C2625,377.8,2621.2,381.6,2621.2,386.3L2621.2,386.3z"/>
<path class="st13" d="M2773.3,305.8c0,3.2,2.6,5.8,5.8,5.8h35.8c3.2,0,5.8-2.6,5.8-5.8l0,0c0-3.2-2.6-5.8-5.8-5.8h-35.8
	C2776,300,2773.3,302.6,2773.3,305.8L2773.3,305.8z"/>
<path class="st13" d="M1204.7,461.1c0,4.7,3.8,8.5,8.5,8.5h52c4.7,0,8.5-3.8,8.5-8.5l0,0c0-4.7-3.8-8.5-8.5-8.5h-52
	C1208.5,452.6,1204.7,456.4,1204.7,461.1L1204.7,461.1z"/>
<path class="st13" d="M2759.1,408.9h33.6c1.5,0,2.8-1.2,2.8-2.8c0-1.5-1.2-2.8-2.8-2.8h-1.3c-4.7,0-8.6-3.8-8.6-8.6s3.8-8.6,8.6-8.6
	h53.7c4.7,0,8.6,3.8,8.6,8.6s-3.8,8.6-8.6,8.6h0.2c-1.5,0-2.8,1.2-2.8,2.8c0,1.5,1.2,2.8,2.8,2.8h7.9c5.5,0,10,4.3,10,9.5
	s-4.5,9.5-10,9.5h-94.1c-5.5,0-10-4.3-10-9.5C2749.1,413.2,2753.6,408.9,2759.1,408.9z"/>
<path class="st13" d="M1004.8,471h27.3c1.2,0,2.2-1,2.2-2.2s-1-2.2-2.2-2.2h-1.1c-3.8,0-7-3.1-7-7c0-3.8,3.1-7,7-7h43.5
	c3.8,0,7,3.1,7,7c0,3.8-3.1,7-7,7h0.2c-1.2,0-2.2,1-2.2,2.2s1,2.2,2.2,2.2h6.4c4.5,0,8.1,3.4,8.1,7.7c0,4.3-3.6,7.7-8.1,7.7h-76.3
	c-4.5,0-8.1-3.5-8.1-7.7C996.7,474.4,1000.3,471,1004.8,471z"/>
<path class="st13" d="M1020,347.4h16c0.7,0,1.3-0.6,1.3-1.3c0-0.7-0.6-1.3-1.3-1.3h-0.6c-2.3,0-4.1-1.8-4.1-4.1
	c0-2.3,1.8-4.1,4.1-4.1h25.6c2.3,0,4.1,1.8,4.1,4.1c0,2.3-1.8,4.1-4.1,4.1h0.1c-0.7,0-1.3,0.6-1.3,1.3c0,0.7,0.6,1.3,1.3,1.3h3.8
	c2.6,0,4.8,2,4.8,4.5s-2.1,4.5-4.8,4.5H1020c-2.6,0-4.8-2-4.8-4.5C1015.2,349.5,1017.3,347.4,1020,347.4z"/>
<path class="st13" d="M2488.1,446.3h27.3c1.2,0,2.2-1,2.2-2.2s-1-2.2-2.2-2.2h-1.1c-3.8,0-7-3.1-7-7c0-3.8,3.1-7,7-7h43.5
	c3.8,0,7,3.1,7,7c0,3.8-3.1,7-7,7h0.2c-1.2,0-2.2,1-2.2,2.2s1,2.2,2.2,2.2h6.4c4.5,0,8.1,3.4,8.1,7.7c0,4.3-3.6,7.7-8.1,7.7h-76.3
	c-4.5,0-8.1-3.4-8.1-7.7C2480,449.8,2483.7,446.3,2488.1,446.3z"/>
<g>
	<rect x="1746.1" y="720.4" class="st14" width="3.2" height="17.7"/>
	<path class="st15" d="M1735.1,692.2c0-6.9,5.6-12.6,12.6-12.6s12.6,5.6,12.6,12.6V711c0,7-5.6,12.6-12.6,12.6
		c-6.9,0-12.6-5.6-12.6-12.6V692.2z"/>
	<path class="st16" d="M1760.2,692.2V711c0,7-5.6,12.6-12.6,12.6v-44C1754.6,679.6,1760.2,685.3,1760.2,692.2z"/>
</g>
<g>
	<rect x="2177.1" y="718.9" class="st14" width="3.2" height="17.7"/>
	<path class="st15" d="M2166.1,690.6c0-6.9,5.6-12.6,12.6-12.6s12.6,5.6,12.6,12.6v18.8c0,7-5.6,12.6-12.6,12.6
		c-6.9,0-12.6-5.6-12.6-12.6V690.6z"/>
	<path class="st16" d="M2191.3,690.6v18.8c0,7-5.6,12.6-12.6,12.6v-44C2185.6,678.1,2191.3,683.7,2191.3,690.6z"/>
</g>
<g>
	<rect x="1730.9" y="728.2" class="st14" width="1.8" height="8.9"/>
	<g>
		<polygon class="st15" points="1723.3,728.9 1731.8,700.1 1740.3,728.9 		"/>
		<polygon class="st16" points="1723.3,728.9 1731.8,728.9 1731.8,700.1 		"/>
	</g>
</g>
<g>
	<rect x="1396.6" y="726.6" class="st14" width="1.8" height="8.9"/>
	<g>
		<polygon class="st15" points="1389,727.4 1397.5,698.5 1406,727.4 		"/>
		<polygon class="st16" points="1389,727.4 1397.5,727.4 1397.5,698.5 		"/>
	</g>
</g>
<g>
	<rect x="2159.9" y="726.3" class="st14" width="1.8" height="8.9"/>
	<g>
		<polygon class="st15" points="2152.3,727 2160.8,698.2 2169.3,727 		"/>
		<polygon class="st16" points="2152.3,727 2160.8,727 2160.8,698.2 		"/>
	</g>
</g>
<g>
	<rect x="2191.8" y="728.7" class="st14" width="1.2" height="6.1"/>
	<g>
		<polygon class="st15" points="2186.6,729.2 2192.4,709.5 2198.2,729.2 		"/>
		<polygon class="st16" points="2186.6,729.2 2192.4,729.2 2192.4,709.5 		"/>
	</g>
</g>
<g>
	<rect x="2478.4" y="731" class="st14" width="1.4" height="7.3"/>
	<g>
		<polygon class="st15" points="2472.1,731.6 2479.1,707.9 2486.1,731.6 		"/>
		<polygon class="st16" points="2472.1,731.6 2479.1,731.6 2479.1,707.9 		"/>
	</g>
</g>
<g>
	<rect x="2500.9" y="725" class="st14" width="2.2" height="11.4"/>
	<g>
		<polygon class="st15" points="2491.2,725.9 2502,689.1 2512.9,725.9 		"/>
		<polygon class="st16" points="2491.2,725.9 2502,725.9 2502,689.1 		"/>
	</g>
</g>
<g>
	<rect x="2823.8" y="727" class="st14" width="1.4" height="7.3"/>
	<g>
		<polygon class="st15" points="2817.5,727.6 2824.5,703.9 2831.5,727.6 		"/>
		<polygon class="st16" points="2817.5,727.6 2824.5,727.6 2824.5,703.9 		"/>
	</g>
</g>
<g>
	<rect x="2846.3" y="722.8" class="st14" width="2.2" height="11.4"/>
	<g>
		<polygon class="st15" points="2836.5,723.7 2847.4,686.8 2858.3,723.7 		"/>
		<polygon class="st16" points="2836.5,723.7 2847.4,723.7 2847.4,686.8 		"/>
	</g>
</g>
<g>
	<g>
		<g>
			<g>
				<rect x="2598.2" y="568.8" class="st5" width="84.4" height="34.1"/>
				<rect x="2594.6" y="562.8" class="st17" width="91.6" height="6.1"/>
			</g>
		</g>
	</g>
	<g>
		<rect x="2581.8" y="606.1" class="st5" width="113.5" height="130.6"/>
		<rect x="2579.1" y="600.1" class="st17" width="118.9" height="6.1"/>
		<g>
			<g>
				<rect x="2598.2" y="613.8" class="st8" width="9.3" height="15.5"/>
			</g>
			<g>
				<rect x="2616.5" y="613.8" class="st8" width="9.3" height="15.5"/>
			</g>
			<g>
				<rect x="2634.9" y="613.8" class="st8" width="9.3" height="15.5"/>
			</g>
			<g>
				<rect x="2653.2" y="613.8" class="st8" width="9.3" height="15.5"/>
			</g>
			<g>
				<rect x="2671.6" y="613.8" class="st8" width="9.3" height="15.5"/>
			</g>
			<g>
				<rect x="2598.2" y="637.2" class="st8" width="9.3" height="15.5"/>
			</g>
			<g>
				<rect x="2616.5" y="637.2" class="st8" width="9.3" height="15.5"/>
			</g>
			<g>
				<rect x="2634.9" y="637.2" class="st8" width="9.3" height="15.5"/>
			</g>
			<g>
				<rect x="2653.2" y="637.2" class="st8" width="9.3" height="15.5"/>
			</g>
			<g>
				<rect x="2671.6" y="637.2" class="st8" width="9.3" height="15.5"/>
			</g>
			<g>
				<rect x="2598.2" y="663.8" class="st8" width="82.7" height="7.8"/>
			</g>
			<g>
				<rect x="2598.2" y="683.9" class="st8" width="9.3" height="15.5"/>
			</g>
			<g>
				<rect x="2616.5" y="683.9" class="st8" width="9.3" height="15.5"/>
			</g>
			<g>
				<rect x="2634.9" y="683.9" class="st8" width="9.3" height="15.5"/>
			</g>
			<g>
				<rect x="2653.2" y="683.9" class="st8" width="9.3" height="15.5"/>
			</g>
			<g>
				<rect x="2671.6" y="683.9" class="st8" width="9.3" height="15.5"/>
			</g>
			<g>
				<rect x="2598.2" y="707.2" class="st8" width="9.3" height="15.5"/>
			</g>
			<g>
				<rect x="2616.5" y="707.2" class="st8" width="9.3" height="15.5"/>
			</g>
			<g>
				<rect x="2634.9" y="707.2" class="st8" width="9.3" height="15.5"/>
			</g>
			<g>
				<rect x="2653.2" y="707.2" class="st8" width="9.3" height="15.5"/>
			</g>
			<g>
				<rect x="2671.6" y="707.2" class="st8" width="9.3" height="15.5"/>
			</g>
		</g>
	</g>
</g>
<g>
	<rect x="2702.7" y="718" class="st14" width="3.2" height="17.7"/>
	<path class="st15" d="M2691.7,689.8c0-6.9,5.6-12.6,12.6-12.6s12.6,5.6,12.6,12.6v18.8c0,7-5.6,12.6-12.6,12.6
		c-6.9,0-12.6-5.6-12.6-12.6V689.8z"/>
	<path class="st16" d="M2716.9,689.8v18.8c0,7-5.6,12.6-12.6,12.6v-44C2711.2,677.2,2716.9,682.8,2716.9,689.8z"/>
</g>
<g>
	<rect x="1818.3" y="676.9" class="st18" width="105.5" height="60.4"/>
	<rect x="1815.8" y="674" class="st19" width="110.5" height="5.6"/>
	<g>
		<g>
			<rect x="1833.6" y="688.1" class="st10" width="8.7" height="14.4"/>
		</g>
		<g>
			<rect x="1850.7" y="688.1" class="st10" width="8.7" height="14.4"/>
		</g>
		<g>
			<rect x="1867.7" y="688.1" class="st10" width="8.7" height="14.4"/>
		</g>
		<g>
			<rect x="1884.8" y="688.1" class="st10" width="8.7" height="14.4"/>
		</g>
		<g>
			<rect x="1901.8" y="688.1" class="st10" width="8.7" height="14.4"/>
		</g>
		<g>
			<rect x="1833.6" y="709.8" class="st10" width="8.7" height="14.4"/>
		</g>
		<g>
			<rect x="1850.7" y="709.8" class="st10" width="8.7" height="14.4"/>
		</g>
		<g>
			<rect x="1867.7" y="709.8" class="st10" width="8.7" height="14.4"/>
		</g>
		<g>
			<rect x="1884.8" y="709.8" class="st10" width="8.7" height="14.4"/>
		</g>
		<g>
			<rect x="1901.8" y="709.8" class="st10" width="8.7" height="14.4"/>
		</g>
	</g>
</g>
<g>
	<g>
		<g>
			<g>
				<rect x="2204.8" y="665.4" class="st20" width="152.8" height="70.7"/>
				<rect x="2264.4" y="600" class="st20" width="93.4" height="69.3"/>
			</g>
			<g>
				<g>
					<g>
						<rect x="2224.3" y="678.4" class="st8" width="13.5" height="19.3"/>
					</g>
					<g>
						<rect x="2250.9" y="678.4" class="st8" width="13.5" height="19.3"/>
					</g>
					<g>
						<rect x="2277.5" y="678.4" class="st8" width="13.5" height="19.3"/>
					</g>
					<g>
						<rect x="2304.1" y="678.4" class="st8" width="13.5" height="19.3"/>
					</g>
					<g>
						<rect x="2330.7" y="678.4" class="st8" width="13.5" height="19.3"/>
					</g>
					<g>
						<rect x="2224.3" y="707.5" class="st8" width="13.5" height="19.3"/>
					</g>
					<g>
						<rect x="2250.9" y="707.5" class="st8" width="13.5" height="19.3"/>
					</g>
					<g>
						<rect x="2277.5" y="707.5" class="st8" width="13.5" height="19.3"/>
					</g>
					<g>
						<rect x="2304.1" y="707.5" class="st8" width="13.5" height="19.3"/>
					</g>
					<g>
						<rect x="2330.7" y="707.5" class="st8" width="13.5" height="19.3"/>
					</g>
				</g>
				<g>
					<g>
						<rect x="2277.5" y="612.5" class="st8" width="13.5" height="19.3"/>
					</g>
					<g>
						<rect x="2304.1" y="612.5" class="st8" width="13.5" height="19.3"/>
					</g>
					<g>
						<rect x="2330.6" y="612.5" class="st8" width="13.5" height="19.3"/>
					</g>
					<g>
						<rect x="2277.5" y="641.5" class="st8" width="13.5" height="19.3"/>
					</g>
					<g>
						<rect x="2304.1" y="641.5" class="st8" width="13.5" height="19.3"/>
					</g>
					<g>
						<rect x="2330.6" y="641.5" class="st8" width="13.5" height="19.3"/>
					</g>
				</g>
			</g>
		</g>
	</g>
</g>
<g>
	<g>
		<rect x="845.7" y="507.9" class="st1" width="102.1" height="25.9"/>
	</g>
	<rect x="836.9" y="531.7" class="st21" width="119.8" height="203.1"/>
	<g>
		<g>
			<g>
				<rect x="932.5" y="545.4" class="st22" width="9.8" height="16.3"/>
			</g>
			<g>
				<rect x="905.4" y="545.4" class="st22" width="9.8" height="16.3"/>
			</g>
			<g>
				<rect x="878.4" y="545.4" class="st22" width="9.8" height="16.3"/>
			</g>
			<g>
				<rect x="851.4" y="545.4" class="st22" width="9.8" height="16.3"/>
			</g>
			<g>
				<rect x="932.5" y="570.1" class="st22" width="9.8" height="16.3"/>
			</g>
			<g>
				<rect x="905.4" y="570.1" class="st22" width="9.8" height="16.3"/>
			</g>
			<g>
				<rect x="878.4" y="570.1" class="st22" width="9.8" height="16.3"/>
			</g>
			<g>
				<rect x="851.4" y="570.1" class="st22" width="9.8" height="16.3"/>
			</g>
			<g>
				<rect x="932.5" y="594.9" class="st22" width="9.8" height="16.3"/>
			</g>
			<g>
				<rect x="905.4" y="594.9" class="st22" width="9.8" height="16.3"/>
			</g>
			<g>
				<rect x="878.4" y="594.9" class="st22" width="9.8" height="16.3"/>
			</g>
			<g>
				<rect x="851.4" y="594.9" class="st22" width="9.8" height="16.3"/>
			</g>
		</g>
		<g>
			<g>
				<rect x="932.5" y="619.7" class="st22" width="9.8" height="16.3"/>
			</g>
			<g>
				<rect x="905.4" y="619.7" class="st22" width="9.8" height="16.3"/>
			</g>
			<g>
				<rect x="878.4" y="619.7" class="st22" width="9.8" height="16.3"/>
			</g>
			<g>
				<rect x="851.4" y="619.7" class="st22" width="9.8" height="16.3"/>
			</g>
			<g>
				<rect x="932.5" y="644.5" class="st22" width="9.8" height="16.3"/>
			</g>
			<g>
				<rect x="905.4" y="644.5" class="st22" width="9.8" height="16.3"/>
			</g>
			<g>
				<rect x="878.4" y="644.5" class="st22" width="9.8" height="16.3"/>
			</g>
			<g>
				<rect x="851.4" y="644.5" class="st22" width="9.8" height="16.3"/>
			</g>
			<g>
				<rect x="932.5" y="669.3" class="st22" width="9.8" height="16.3"/>
			</g>
			<g>
				<rect x="905.4" y="669.3" class="st22" width="9.8" height="16.3"/>
			</g>
			<g>
				<rect x="878.4" y="669.3" class="st22" width="9.8" height="16.3"/>
			</g>
			<g>
				<rect x="851.4" y="669.3" class="st22" width="9.8" height="16.3"/>
			</g>
		</g>
	</g>
	<rect x="874.4" y="697.5" class="st22" width="44.8" height="33.8"/>
	<g>
		<g>
			<rect x="857.1" y="515.4" class="st22" width="18" height="10.8"/>
		</g>
		<g>
			<rect x="887.2" y="515.4" class="st22" width="18" height="10.8"/>
		</g>
		<g>
			<rect x="917.2" y="515.4" class="st22" width="18" height="10.8"/>
		</g>
	</g>
</g>
<g>
	<rect x="1931.5" y="728.7" class="st14" width="1.8" height="8.9"/>
	<g>
		<polygon class="st15" points="1923.9,729.4 1932.4,700.6 1940.9,729.4 		"/>
		<polygon class="st16" points="1923.9,729.4 1932.4,729.4 1932.4,700.6 		"/>
	</g>
</g>
<g>
	<polygon class="st20" points="2072.7,731.1 1979.4,731.1 1979.4,645.6 2026.1,627.5 2072.7,645.6 	"/>
	<rect x="1979.4" y="729.1" class="st23" width="93.3" height="5.2"/>
	<rect x="2015.7" y="711" class="st24" width="20.7" height="23.3"/>
	<g>
		<rect x="2044.2" y="690.3" class="st25" width="15.5" height="13"/>
		<rect x="2018.3" y="690.3" class="st25" width="15.5" height="13"/>
		<rect x="1992.4" y="690.3" class="st25" width="15.5" height="13"/>
		<rect x="2044.2" y="711" class="st25" width="15.5" height="13"/>
		<rect x="1992.4" y="711" class="st25" width="15.5" height="13"/>
		<rect x="2044.2" y="669.5" class="st25" width="15.5" height="13"/>
		<rect x="2018.3" y="669.5" class="st25" width="15.5" height="13"/>
		<rect x="1992.4" y="669.5" class="st25" width="15.5" height="13"/>
		<rect x="2044.2" y="648.8" class="st25" width="15.5" height="13"/>
		<rect x="2018.3" y="648.8" class="st25" width="15.5" height="13"/>
		<rect x="1992.4" y="648.8" class="st25" width="15.5" height="13"/>
	</g>
</g>
<path class="st6" d="M2459.3,555.4v180.2H2356V555.4H2459.3z"/>
<rect x="2356" y="547.1" class="st21" width="103.3" height="8.7"/>
<g>
	<rect x="2427.7" y="649.8" class="st25" width="17.2" height="25"/>
	<rect x="2399.1" y="649.8" class="st25" width="17.2" height="25"/>
	<rect x="2370.4" y="649.8" class="st25" width="17.2" height="25"/>
	<rect x="2427.7" y="689.8" class="st25" width="17.2" height="25"/>
	<rect x="2370.4" y="689.8" class="st25" width="17.2" height="25"/>
	<rect x="2427.7" y="609.9" class="st25" width="17.2" height="25"/>
	<rect x="2399.1" y="609.9" class="st25" width="17.2" height="25"/>
	<rect x="2370.4" y="609.9" class="st25" width="17.2" height="25"/>
	<rect x="2427.7" y="569.9" class="st25" width="17.2" height="25"/>
	<rect x="2399.1" y="569.9" class="st25" width="17.2" height="25"/>
	<rect x="2370.4" y="569.9" class="st25" width="17.2" height="25"/>
	<rect x="2399.1" y="689.8" class="st25" width="17.2" height="45"/>
</g>
<g>
	<g>
		<g>
			<g>
				<rect x="1531.5" y="629.5" class="st6" width="62.1" height="108.4"/>
			</g>
			<rect x="1528.8" y="622.4" class="st7" width="67.4" height="7"/>
		</g>
		<g>
			<g>
				<rect x="1570" y="637.9" class="st8" width="10.8" height="18"/>
			</g>
			<g>
				<rect x="1548.7" y="637.9" class="st8" width="10.8" height="18"/>
			</g>
			<g>
				<rect x="1570" y="694" class="st8" width="10.8" height="18"/>
			</g>
			<g>
				<rect x="1548.7" y="694" class="st8" width="10.8" height="18"/>
			</g>
			<g>
				<rect x="1570" y="665" class="st8" width="10.8" height="18"/>
			</g>
			<g>
				<rect x="1548.7" y="665" class="st8" width="10.8" height="18"/>
			</g>
		</g>
	</g>
</g>
<rect x="1432.5" y="576.9" class="st21" width="108.5" height="161.3"/>
<g>
	<g>
		<g>
			<rect x="1522.4" y="588.6" class="st22" width="9.8" height="14.4"/>
		</g>
		<g>
			<rect x="1495.4" y="588.6" class="st22" width="9.8" height="14.4"/>
		</g>
		<g>
			<rect x="1468.3" y="588.6" class="st22" width="9.8" height="14.4"/>
		</g>
		<g>
			<rect x="1441.3" y="588.6" class="st22" width="9.8" height="14.4"/>
		</g>
		<g>
			<rect x="1522.4" y="610.5" class="st22" width="9.8" height="14.4"/>
		</g>
		<g>
			<rect x="1495.4" y="610.5" class="st22" width="9.8" height="14.4"/>
		</g>
		<g>
			<rect x="1468.3" y="610.5" class="st22" width="9.8" height="14.4"/>
		</g>
		<g>
			<rect x="1441.3" y="610.5" class="st22" width="9.8" height="14.4"/>
		</g>
		<g>
			<rect x="1522.4" y="632.5" class="st22" width="9.8" height="14.4"/>
		</g>
		<g>
			<rect x="1495.4" y="632.5" class="st22" width="9.8" height="14.4"/>
		</g>
		<g>
			<rect x="1468.3" y="632.5" class="st22" width="9.8" height="14.4"/>
		</g>
		<g>
			<rect x="1441.3" y="632.5" class="st22" width="9.8" height="14.4"/>
		</g>
	</g>
	<g>
		<g>
			<rect x="1522.4" y="654.4" class="st22" width="9.8" height="14.4"/>
		</g>
		<g>
			<rect x="1495.4" y="654.4" class="st22" width="9.8" height="14.4"/>
		</g>
		<g>
			<rect x="1468.3" y="654.4" class="st22" width="9.8" height="14.4"/>
		</g>
		<g>
			<rect x="1441.3" y="654.4" class="st22" width="9.8" height="14.4"/>
		</g>
		<g>
			<rect x="1522.4" y="676.4" class="st22" width="9.8" height="14.4"/>
		</g>
		<g>
			<rect x="1495.4" y="676.4" class="st22" width="9.8" height="14.4"/>
		</g>
		<g>
			<rect x="1468.3" y="676.4" class="st22" width="9.8" height="14.4"/>
		</g>
		<g>
			<rect x="1441.3" y="676.4" class="st22" width="9.8" height="14.4"/>
		</g>
		<g>
			<rect x="1522.4" y="698.4" class="st22" width="9.8" height="14.4"/>
		</g>
		<g>
			<rect x="1495.4" y="698.4" class="st22" width="9.8" height="14.4"/>
		</g>
		<g>
			<rect x="1468.3" y="698.4" class="st22" width="9.8" height="14.4"/>
		</g>
		<g>
			<rect x="1441.3" y="698.4" class="st22" width="9.8" height="14.4"/>
		</g>
	</g>
</g>
<g>
	<rect x="1065.5" y="717.9" class="st14" width="3.2" height="17.7"/>
	<path class="st15" d="M1054.5,689.6c0-6.9,5.6-12.6,12.6-12.6s12.6,5.6,12.6,12.6v18.8c0,7-5.6,12.6-12.6,12.6
		c-6.9,0-12.6-5.6-12.6-12.6V689.6z"/>
	<path class="st16" d="M1079.7,689.6v18.8c0,7-5.6,12.6-12.6,12.6v-44C1074,677.1,1079.7,682.7,1079.7,689.6z"/>
</g>
<g>
	<rect x="1048.3" y="725.3" class="st14" width="1.8" height="8.9"/>
	<g>
		<polygon class="st15" points="1040.7,726 1049.2,697.2 1057.7,726 		"/>
		<polygon class="st16" points="1040.7,726 1049.2,726 1049.2,697.2 		"/>
	</g>
</g>
<g>
	<g>
		<g>
			<g>
				<rect x="1113.2" y="664.4" class="st20" width="152.8" height="70.7"/>
				<rect x="1172.8" y="599" class="st20" width="93.4" height="69.3"/>
			</g>
			<g>
				<g>
					<g>
						<rect x="1132.7" y="677.4" class="st8" width="13.5" height="19.3"/>
					</g>
					<g>
						<rect x="1159.3" y="677.4" class="st8" width="13.5" height="19.3"/>
					</g>
					<g>
						<rect x="1185.9" y="677.4" class="st8" width="13.5" height="19.3"/>
					</g>
					<g>
						<rect x="1212.5" y="677.4" class="st8" width="13.5" height="19.3"/>
					</g>
					<g>
						<rect x="1239.1" y="677.4" class="st8" width="13.5" height="19.3"/>
					</g>
					<g>
						<rect x="1132.7" y="706.5" class="st8" width="13.5" height="19.3"/>
					</g>
					<g>
						<rect x="1159.3" y="706.5" class="st8" width="13.5" height="19.3"/>
					</g>
					<g>
						<rect x="1185.9" y="706.5" class="st8" width="13.5" height="19.3"/>
					</g>
					<g>
						<rect x="1212.5" y="706.5" class="st8" width="13.5" height="19.3"/>
					</g>
					<g>
						<rect x="1239.1" y="706.5" class="st8" width="13.5" height="19.3"/>
					</g>
				</g>
				<g>
					<g>
						<rect x="1185.9" y="611.5" class="st8" width="13.5" height="19.3"/>
					</g>
					<g>
						<rect x="1212.5" y="611.5" class="st8" width="13.5" height="19.3"/>
					</g>
					<g>
						<rect x="1239.1" y="611.5" class="st8" width="13.5" height="19.3"/>
					</g>
					<g>
						<rect x="1185.9" y="640.5" class="st8" width="13.5" height="19.3"/>
					</g>
					<g>
						<rect x="1212.5" y="640.5" class="st8" width="13.5" height="19.3"/>
					</g>
					<g>
						<rect x="1239.1" y="640.5" class="st8" width="13.5" height="19.3"/>
					</g>
				</g>
			</g>
		</g>
	</g>
</g>
<path class="st6" d="M1367.7,554.4v180.2h-103.2V554.4H1367.7z"/>
<g>
	<rect x="1336.2" y="648.8" class="st25" width="17.2" height="25"/>
	<rect x="1307.5" y="648.8" class="st25" width="17.2" height="25"/>
	<rect x="1278.8" y="648.8" class="st25" width="17.2" height="25"/>
	<rect x="1336.2" y="688.8" class="st25" width="17.2" height="25"/>
	<rect x="1278.8" y="688.8" class="st25" width="17.2" height="25"/>
	<rect x="1336.2" y="608.9" class="st25" width="17.2" height="25"/>
	<rect x="1307.5" y="608.9" class="st25" width="17.2" height="25"/>
	<rect x="1278.8" y="608.9" class="st25" width="17.2" height="25"/>
	<rect x="1336.2" y="568.9" class="st25" width="17.2" height="25"/>
	<rect x="1307.5" y="568.9" class="st25" width="17.2" height="25"/>
	<rect x="1278.8" y="568.9" class="st25" width="17.2" height="25"/>
	<rect x="1307.5" y="688.8" class="st25" width="17.2" height="45"/>
</g>
<rect x="2752.3" y="692" class="st22" width="44.8" height="41.9"/>
<g>
	<rect x="1592.9" y="674.5" class="st18" width="105.5" height="60.4"/>
	<rect x="1590.4" y="671.5" class="st19" width="110.5" height="5.6"/>
	<g>
		<g>
			<rect x="1608.2" y="685.7" class="st10" width="8.7" height="14.4"/>
		</g>
		<g>
			<rect x="1625.2" y="685.7" class="st10" width="8.7" height="14.4"/>
		</g>
		<g>
			<rect x="1642.3" y="685.7" class="st10" width="8.7" height="14.4"/>
		</g>
		<g>
			<rect x="1659.3" y="685.7" class="st10" width="8.7" height="14.4"/>
		</g>
		<g>
			<rect x="1676.4" y="685.7" class="st10" width="8.7" height="14.4"/>
		</g>
		<g>
			<rect x="1608.2" y="707.4" class="st10" width="8.7" height="14.4"/>
		</g>
		<g>
			<rect x="1625.2" y="707.4" class="st10" width="8.7" height="14.4"/>
		</g>
		<g>
			<rect x="1642.3" y="707.4" class="st10" width="8.7" height="14.4"/>
		</g>
		<g>
			<rect x="1659.3" y="707.4" class="st10" width="8.7" height="14.4"/>
		</g>
		<g>
			<rect x="1676.4" y="707.4" class="st10" width="8.7" height="14.4"/>
		</g>
	</g>
</g>
<g>
	<rect x="816.2" y="718" class="st14" width="3.2" height="17.7"/>
	<path class="st15" d="M805.2,689.8c0-6.9,5.6-12.6,12.6-12.6s12.6,5.6,12.6,12.6v18.8c0,7-5.6,12.6-12.6,12.6
		c-6.9,0-12.6-5.6-12.6-12.6V689.8z"/>
	<path class="st16" d="M830.4,689.8v18.8c0,7-5.6,12.6-12.6,12.6v-44C824.8,677.2,830.4,682.8,830.4,689.8z"/>
</g>
<g>
	<rect x="799" y="725.5" class="st14" width="1.8" height="8.9"/>
	<g>
		<polygon class="st15" points="791.4,726.2 799.9,697.3 808.4,726.2 		"/>
		<polygon class="st16" points="791.4,726.2 799.9,726.2 799.9,697.3 		"/>
	</g>
</g>
<g>
	<rect x="775" y="733.7" class="st26" width="2161.3" height="19.4"/>
	<polygon class="st27" points="2936.3,749.1 2936.3,765.1 2936.3,781 775,781 775,765.1 775,749.1 	"/>
</g>
<g>
	<path class="st28" d="M2610.4,765.7L2610.4,765.7c3.7,0,6.7-3,6.7-6.7v-1c0-3.3-2.4-6.1-5.6-6.6l-4.8-0.8c-2-0.3-3.8-1.2-5.3-2.4
		l-8-6.7c-2-1.7-4.6-2.6-7.2-2.6h-10.6c-3,0-5.5,2.5-5.5,5.5v5.7h-13.4c-2.5,0-4.5,2-4.5,4.5v4.5c0,3.7,3,6.7,6.7,6.7l0,0h51.5
		V765.7z"/>
	<path class="st29" d="M2575.7,750h29.2c-1.3-0.4-2.4-1.1-3.5-1.9l-5.7-4.8h-19.4c-0.9,0-1.7,0.8-1.7,1.7v3.9
		C2574.5,749.5,2575,750,2575.7,750z"/>
	<line class="st30" x1="2583.5" y1="750" x2="2583.5" y2="743.2"/>
	<line class="st31" x1="2612.7" y1="756.7" x2="2616.9" y2="756.7"/>
	<line class="st32" x1="2583.5" y1="754.5" x2="2585.8" y2="754.5"/>
	<g>
		<circle class="st29" cx="2565.6" cy="765.7" r="6.7"/>
		<circle class="st29" cx="2603.7" cy="765.7" r="6.7"/>
	</g>
	<g>
		<circle class="st33" cx="2565.6" cy="765.7" r="2"/>
		<circle class="st33" cx="2603.7" cy="765.7" r="2"/>
	</g>
</g>
<g>
	<path class="st28" d="M1069.2,761.2L1069.2,761.2c3.7,0,6.7-3,6.7-6.7v-1c0-3.3-2.4-6.1-5.6-6.6l-4.8-0.8c-2-0.3-3.8-1.2-5.3-2.4
		l-8-6.7c-2-1.7-4.6-2.6-7.2-2.6h-10.6c-3,0-5.5,2.5-5.5,5.5v5.7h-13.4c-2.5,0-4.5,2-4.5,4.5v4.5c0,3.7,3,6.7,6.7,6.7l0,0h51.5
		V761.2z"/>
	<path class="st29" d="M1034.4,745.5h29.2c-1.3-0.4-2.4-1.1-3.5-1.9l-5.7-4.8H1035c-0.9,0-1.7,0.8-1.7,1.7v3.9
		C1033.3,745,1033.8,745.5,1034.4,745.5z"/>
	<line class="st30" x1="1042.3" y1="745.5" x2="1042.3" y2="738.7"/>
	<line class="st31" x1="1071.4" y1="752.2" x2="1075.7" y2="752.2"/>
	<line class="st32" x1="1042.3" y1="749.9" x2="1044.5" y2="749.9"/>
	<g>
		<circle class="st29" cx="1024.3" cy="761.2" r="6.7"/>
		<circle class="st29" cx="1062.4" cy="761.2" r="6.7"/>
	</g>
	<g>
		<circle class="st33" cx="1024.3" cy="761.2" r="2"/>
		<circle class="st33" cx="1062.4" cy="761.2" r="2"/>
	</g>
</g>
<g>
	<path class="st34" d="M1958.8,763.2L1958.8,763.2c3.7,0,6.7-3,6.7-6.7v-1c0-3.3-2.4-6.1-5.6-6.6l-4.8-0.8c-2-0.3-3.8-1.2-5.3-2.4
		l-8-6.7c-2-1.7-4.6-2.6-7.2-2.6H1924c-3,0-5.5,2.5-5.5,5.5v5.7H1905c-2.5,0-4.5,2-4.5,4.5v4.5c0,3.7,3,6.7,6.7,6.7l0,0h51.6V763.2z
		"/>
	<path class="st29" d="M1924.1,747.5h29.2c-1.3-0.4-2.4-1.1-3.5-1.9l-5.7-4.8h-19.4c-0.9,0-1.7,0.8-1.7,1.7v3.9
		C1923,747,1923.5,747.5,1924.1,747.5z"/>
	<line class="st30" x1="1931.9" y1="747.5" x2="1931.9" y2="740.7"/>
	<line class="st31" x1="1961.1" y1="754.2" x2="1965.3" y2="754.2"/>
	<line class="st32" x1="1931.9" y1="751.9" x2="1934.2" y2="751.9"/>
	<g>
		<circle class="st29" cx="1914" cy="763.2" r="6.7"/>
		<circle class="st29" cx="1952.1" cy="763.2" r="6.7"/>
	</g>
	<g>
		<circle class="st33" cx="1914" cy="763.2" r="2"/>
		<circle class="st33" cx="1952.1" cy="763.2" r="2"/>
	</g>
</g>
<g>
	<path class="st35" d="M1567.3,756.2v-12c0-3.3,2.8-6,6.2-6h21.7c1.9,0,3.7,0.9,5,2.4l10.6,12.6"/>
	<path class="st35" d="M1616.6,752l-10.1-4.2H1570c-1.7,0-2.8,1.1-2.8,2.8v14c0,1.7,1.1,2.8,2.8,2.8h1.4c0-3.9,3.1-7,7-7s7,3.1,7,7
		h16.8c0-3.9,3.1-7,7-7c3.9,0,7,3.1,7,7h1.4c1.7,0,2.8-1.1,2.8-2.8v-7.3C1620.5,755.1,1618.9,752.8,1616.6,752z"/>
	<g>
		<circle class="st29" cx="1609.3" cy="766" r="7"/>
		<circle class="st29" cx="1578.5" cy="766" r="7"/>
	</g>
	<g>
		<circle class="st36" cx="1609.3" cy="766" r="2.8"/>
		<circle class="st36" cx="1578.5" cy="766" r="2.8"/>
	</g>
	<path class="st29" d="M1586.1,747.8h20.4c-0.9-0.3-1.7-2-2.5-2.6l-1.8-2.1h-15.8c-0.7,0-1.2,0.5-1.2,1.2v2.8
		C1585.3,747.4,1585.6,747.8,1586.1,747.8z"/>
</g>
<g>
	<g>
		<path class="st37" d="M2719.3,765.7h-18.6v-26.6c0-1.5,1.2-2.7,2.7-2.7h10.7c0.8,0,1.6,0.4,2.1,1.1l8,10.3
			c0.4,0.5,0.5,1.1,0.5,1.6v11.1C2724.7,763.3,2722.3,765.7,2719.3,765.7z"/>
		<g>
			<path class="st38" d="M2671.4,765.7h29.3v-30.6c0-2.9-2.4-5.3-5.3-5.3h-29.3v30.6C2666.1,763.3,2668.5,765.7,2671.4,765.7z"/>
		</g>
		<g>
			<circle class="st39" cx="2712.7" cy="765.7" r="6.7"/>
			<circle class="st39" cx="2682.1" cy="765.7" r="6.7"/>
		</g>
		<g>
			<circle class="st40" cx="2712.7" cy="765.7" r="3.3"/>
			<circle class="st40" cx="2682.1" cy="765.7" r="3.3"/>
		</g>
	</g>
	<path class="st41" d="M2719.3,752.4h-4.8c-0.4,0-0.7-0.1-0.9-0.4l-1.9-1.9c-0.3-0.3-0.5-0.4-0.9-0.4h-4.8c-0.8,0-1.3-0.5-1.3-1.3
		v-8c0-0.8,0.5-1.3,1.3-1.3h7.3c0.4,0,0.8,0.1,1.1,0.5l6,7.2c0.1,0.3,0.3,0.5,0.3,0.8v3.5C2720.7,751.9,2720.1,752.4,2719.3,752.4z"
		/>
</g>
<g>
	<rect x="2603.7" y="578.5" class="st8" width="19.1" height="10.7"/>
	<rect x="2630.8" y="578.5" class="st8" width="19.1" height="10.7"/>
	<rect x="2658" y="578.5" class="st8" width="19.1" height="10.7"/>
</g>
<g>
	<g>
		<polygon class="st0" points="2570,605.3 2593,626.5 2547.1,626.5 2501.1,626.5 2524.1,605.3 		"/>
		<g>
			<rect x="2508.5" y="626.5" class="st1" width="77.1" height="109.5"/>
			<rect x="2508.5" y="626.5" class="st2" width="77.1" height="11.1"/>
		</g>
		<g>
			<g>
				<rect x="2535.9" y="698" class="st0" width="22.4" height="37.9"/>
				<rect x="2535.9" y="698" class="st3" width="4" height="37.9"/>
			</g>
		</g>
		<g>
			<g>
				<g>
					<g>
						<g>
							<path class="st4" d="M2568,586.6"/>
						</g>
						<g>
							<path class="st4" d="M2624.5,530"/>
						</g>
					</g>
					<g>
						<g>
							<path class="st4" d="M2567.8,627.6"/>
						</g>
						<g>
							<path class="st4" d="M2624.4,684.1"/>
						</g>
					</g>
					<g>
						<g>
							<path class="st4" d="M2526.3,625.1"/>
						</g>
						<g>
							<path class="st4" d="M2469.7,681.7"/>
						</g>
					</g>
					<g>
						<g>
							<path class="st4" d="M2526.1,586.7"/>
						</g>
						<g>
							<path class="st4" d="M2469.6,530.2"/>
						</g>
					</g>
				</g>
			</g>
		</g>
	</g>
	<g>
		<rect x="2521.9" y="636.5" class="st5" width="13.1" height="7.4"/>
		<rect x="2540.5" y="636.5" class="st5" width="13.1" height="7.4"/>
		<rect x="2559.1" y="636.5" class="st5" width="13.1" height="7.4"/>
	</g>
	<g>
		<rect x="2521.9" y="650.2" class="st5" width="13.1" height="7.4"/>
		<rect x="2540.5" y="650.2" class="st5" width="13.1" height="7.4"/>
		<rect x="2559.2" y="650.2" class="st5" width="13.1" height="7.4"/>
	</g>
	<g>
		<rect x="2521.9" y="663.9" class="st5" width="13.1" height="7.4"/>
		<rect x="2540.5" y="663.9" class="st5" width="13.1" height="7.4"/>
		<rect x="2559.1" y="663.9" class="st5" width="13.1" height="7.4"/>
	</g>
	<g>
		<rect x="2521.9" y="677.6" class="st5" width="13.1" height="7.4"/>
		<rect x="2540.5" y="677.6" class="st5" width="13.1" height="7.4"/>
		<rect x="2559.1" y="677.6" class="st5" width="13.1" height="7.4"/>
	</g>
</g>
</svg>
